<svg width="189" height="192" viewBox="0 0 189 192" fill="none" xmlns="http://www.w3.org/2000/svg">
<g filter="url(#filter0_d)">
<path d="M6.35086 67.891C6.60529 68.409 7.11415 68.6679 7.49579 69.0564C7.75022 69.4449 8.00465 69.9629 8.25908 70.4808C8.51351 70.9988 9.02237 71.3873 9.02237 71.9053C9.02237 72.2937 8.38629 72.5527 8.25908 72.9412C8.25908 73.2002 8.25908 73.4592 8.3863 73.8477L8.76794 74.2361C9.2768 74.2361 9.40401 73.7182 9.78566 73.4592H10.4217C10.6762 73.5887 10.6762 74.1067 10.9306 74.1067C11.0578 74.2361 11.3122 73.7182 11.5667 73.8477C11.8211 73.8477 12.0755 73.9772 12.2027 74.2361C12.5844 74.7541 12.4572 75.4016 12.8388 75.9196C13.0932 76.308 13.6021 76.4375 14.111 76.567C14.4926 76.567 15.0015 76.4375 15.2559 76.1785C15.6375 75.7901 15.6375 75.2721 15.892 75.0131C16.1464 74.7541 16.5281 74.8836 16.7825 74.7541C17.0369 74.6246 17.2913 74.3656 17.673 74.2361C17.8002 74.1067 18.1818 73.7182 18.3091 73.8477C18.6907 74.3656 18.5635 75.0131 18.5635 75.5311C18.6907 77.085 18.1818 78.7684 18.6907 80.1928C18.8179 80.7108 19.5812 80.5813 20.0901 80.4518C20.5989 80.3223 20.9806 79.8044 21.4894 79.8044C22.1255 79.6749 22.7616 79.8044 23.2704 79.8044C24.0337 79.9338 24.9242 79.9338 25.6875 79.9338C26.578 80.0633 27.4685 80.1928 28.359 79.9338C28.7407 79.9338 29.1223 79.4159 29.2496 79.0274C29.504 78.7684 29.2495 78.2504 29.504 77.9914C29.6312 77.862 30.1401 77.862 30.3945 77.862C30.6489 77.862 30.7761 78.2504 30.9033 78.1209C31.4122 77.9914 31.7938 77.603 32.0483 77.344C32.4299 76.9555 32.5571 76.308 32.9388 76.049C33.1932 75.9196 33.4476 76.4375 33.5749 76.308C33.9565 76.049 34.0837 75.5311 34.3382 75.1426C34.7198 74.7541 35.2287 74.3656 35.6103 74.2361C36.2464 73.9772 37.0097 73.8477 37.6457 73.7182C38.0274 73.7182 38.2818 73.5887 38.6635 73.5887C39.0451 73.5887 39.4268 73.7182 39.8084 73.7182C40.0628 73.7182 40.3173 73.4592 40.5717 73.4592C40.6989 73.3297 40.9533 73.0707 41.0805 73.3297C41.4622 73.7182 41.5894 74.4951 41.5894 75.0131C41.5894 75.5311 41.0805 75.7901 41.0805 76.1785C40.9533 76.6965 41.0805 77.2145 41.2078 77.603C41.335 77.9914 41.7166 78.1209 41.8438 78.5094C41.9711 78.8979 41.9711 79.2864 41.8438 79.6749C41.7166 79.9338 41.2078 79.8044 41.2078 80.0633C41.2078 80.5813 41.4622 80.9698 41.5894 81.3583C41.8438 81.8762 41.8438 82.3942 42.2255 82.9122C42.6071 83.5597 43.116 84.2071 43.7521 84.5956C44.2609 84.9841 44.897 84.9841 45.4059 85.2431C45.6603 85.5021 45.5331 86.1495 45.9147 86.4085C46.2964 86.6675 46.8052 86.6675 47.1869 86.538C47.6957 86.538 48.0774 86.4085 48.459 86.279C48.5862 86.279 48.7134 86.02 48.9679 86.02C49.4767 86.1495 50.1128 86.538 50.6217 86.797C51.0033 87.056 51.1305 87.5739 51.5122 87.8329C51.8938 87.9624 52.2755 87.7034 52.5299 87.9624C53.0388 88.0919 53.2932 88.7394 53.802 88.8689C54.1837 89.1279 54.6926 89.2574 55.0742 89.2574C55.3286 89.3868 55.7103 89.1279 55.9647 89.3868C56.4736 89.7753 56.728 90.5523 57.3641 90.9408C57.7457 91.1998 58.3818 91.3292 59.0179 91.1998C59.2723 91.0703 59.2723 90.4228 59.6539 90.4228C60.1628 90.2933 60.5444 90.6818 61.0533 90.8113C61.4349 91.0703 61.8166 91.3292 62.1982 91.5882C62.7071 91.8472 63.4704 91.9767 63.7248 92.4947C63.9792 92.8832 63.4704 93.5306 63.5976 94.0486C63.7248 94.6961 64.2337 95.214 64.4881 95.8615C64.6153 96.25 64.4881 96.8975 64.4881 97.4154C64.4881 97.5449 64.6153 97.6744 64.4881 97.8039C64.1065 97.9334 63.7248 97.6744 63.4704 97.8039C63.3432 97.9334 63.4704 98.3219 63.5976 98.4514C63.7248 98.7104 64.1065 98.8399 64.2337 99.2283C64.4881 99.7463 64.6153 100.394 64.6153 101.041C64.7425 101.559 64.6153 102.077 64.7425 102.466C64.8698 102.984 65.2514 103.502 65.633 103.631C66.6508 103.89 67.7957 103.631 68.9406 103.631C69.9584 103.761 70.9761 103.761 71.9938 103.761C72.2482 103.89 72.8843 103.502 72.8843 103.89C73.0115 104.279 72.2482 104.538 72.121 105.056C72.121 105.444 72.5026 105.703 72.6299 105.962C72.8843 106.48 72.8843 107.127 73.1387 107.516C73.3932 107.904 73.7748 108.034 74.1564 108.293C74.5381 108.681 74.7925 109.07 75.1742 109.458C75.5558 109.847 75.9374 110.365 76.1919 110.883C76.4463 111.401 76.4463 111.919 76.4463 112.566C76.4463 113.084 76.3191 113.602 76.0647 114.12C75.9375 114.768 75.5558 115.415 75.3014 116.062C75.1742 116.839 74.9197 117.487 74.6653 118.134C74.5381 118.523 74.1564 119.041 74.2837 119.429C74.4109 119.818 74.9197 119.818 75.1742 119.947C75.3014 120.206 75.4286 120.465 75.3014 120.595C75.1742 120.854 74.7925 120.595 74.5381 120.854C74.2837 121.113 74.1564 121.631 74.2837 122.019C74.2837 122.537 74.6653 122.926 74.7925 123.444C74.9197 123.703 75.0469 123.962 75.1742 124.35C75.3014 124.609 75.5558 124.868 75.5558 125.256C75.683 125.774 75.683 126.292 75.5558 126.94C75.5558 127.199 75.4286 127.458 75.3014 127.846C75.3014 128.105 75.4286 128.494 75.4286 128.753C75.4286 129.141 75.1742 129.53 75.1742 129.918C75.1742 130.307 75.1742 130.825 75.5558 131.084C75.9374 131.213 76.3191 130.695 76.7007 130.695C77.0824 130.695 77.5912 130.825 78.1001 130.825C78.4818 130.954 78.9906 130.825 79.3723 130.954C79.7539 130.954 80.0083 131.213 80.2628 131.213C80.5172 131.343 80.8988 131.472 81.1533 131.472C81.4077 131.343 81.4077 130.566 81.7893 130.695C82.171 130.695 82.171 131.343 82.5526 131.602C83.0615 131.861 83.8248 131.602 84.3336 131.861C84.7153 132.249 84.9697 133.026 85.0969 133.544C85.4786 134.58 85.4786 135.486 85.733 136.522C85.8602 137.04 85.8602 137.817 86.3691 138.206C86.6235 138.465 87.2596 138.465 87.7684 138.594C88.4045 138.594 89.0406 138.335 89.5495 138.465C90.0583 138.594 90.8216 138.853 90.9488 139.371C91.2032 140.019 90.44 140.666 90.44 141.314C90.44 141.832 90.8216 142.22 90.6944 142.738C90.6944 143.127 90.3127 143.515 90.3127 144.033C90.1855 144.292 90.6944 144.421 90.5672 144.68C90.44 144.939 90.0583 144.81 89.9311 145.069C89.8039 145.328 89.8039 145.716 89.9311 146.105C89.9311 146.493 89.9311 146.882 90.3127 147.011C90.8216 147.141 91.5849 146.493 92.0938 146.752C92.7298 147.141 92.9843 148.047 93.2387 148.695C93.4931 149.083 93.6203 149.601 93.6203 149.99C93.4931 150.249 93.1115 150.378 93.1115 150.637C92.9843 151.026 93.2387 151.414 93.2387 151.932C93.2387 152.321 93.1115 152.709 92.9843 153.098C92.7298 153.615 92.6026 154.004 92.221 154.392C91.9665 154.651 91.7121 154.781 91.3305 154.91C90.9488 155.04 90.44 154.91 89.9311 155.04C89.4222 155.299 89.0406 155.817 88.6589 156.076C88.2773 156.335 88.0229 156.723 87.6412 156.982C87.1324 157.371 86.4963 157.63 85.8602 158.018C85.6058 158.277 85.4786 158.666 85.0969 159.054C84.8425 159.443 84.4609 159.831 84.2064 160.22C83.952 160.479 83.8248 160.738 83.5704 160.997C83.1887 161.385 82.8071 161.515 82.4254 161.774C82.171 162.162 82.0438 162.68 81.7893 162.939C81.5349 163.327 81.1533 163.457 80.8988 163.845C80.6444 164.234 80.6444 164.881 80.2628 165.27C79.8811 165.658 79.245 165.529 78.9906 165.917C78.609 166.176 78.609 166.694 78.4818 167.083C78.3545 167.342 78.1001 167.73 78.3545 167.86C78.609 168.119 78.9906 167.601 79.245 167.73C79.4995 167.73 79.6267 168.119 79.7539 168.119C80.0083 168.119 80.1355 167.86 80.2628 167.73C80.39 167.601 80.39 167.342 80.5172 167.212C80.7716 167.083 81.1533 166.953 81.4077 166.953C81.6621 166.953 81.6621 167.342 81.9165 167.471C82.0438 167.601 82.2982 167.601 82.4254 167.73C82.6798 167.989 82.5526 168.378 82.8071 168.637C83.0615 168.896 83.5704 168.896 83.6976 169.025C83.952 169.284 83.952 169.673 84.0792 169.932C84.2064 170.32 84.3336 170.709 84.4609 170.838C84.5881 170.968 84.8425 170.968 85.0969 170.838C85.2241 170.838 85.4786 170.709 85.733 170.579C85.8602 170.45 85.9874 170.45 85.9874 170.32C86.1146 170.191 85.9874 169.932 85.9874 169.802C86.1146 169.673 86.2419 169.673 86.3691 169.673C86.6235 169.673 87.1324 169.673 87.1324 169.932C87.2596 170.191 86.7507 170.45 86.6235 170.709C86.6235 170.968 86.7507 171.227 86.8779 171.356C87.2596 171.874 87.7684 172.392 88.4045 172.651C88.7862 172.91 89.4222 172.91 89.8039 173.169C90.1855 173.428 90.5672 173.816 90.8216 174.075C91.076 174.464 91.2032 174.852 91.5849 175.111C91.9665 175.5 92.6026 175.5 92.9843 176.018C93.4931 176.406 93.4931 177.183 93.8748 177.701C94.8925 179.126 96.2918 178.349 95.2741 180.032C95.2741 180.162 95.0197 180.291 94.8925 180.421C94.638 180.55 94.5108 180.55 94.3836 180.68C94.2564 180.939 94.1292 181.068 94.1292 181.327C94.1292 181.586 94.002 181.975 94.1292 182.363C94.1292 182.622 94.3836 182.881 94.5108 183.01C94.7653 183.14 94.8925 183.14 95.1469 183.01C95.2741 183.01 95.4013 182.751 95.5286 182.622C95.9102 182.492 96.2918 182.363 96.5463 182.233C96.9279 181.975 97.4368 181.716 97.6912 181.327C97.9456 181.068 97.9456 180.68 97.9456 180.291C98.0729 180.032 98.0729 179.773 98.0729 179.514C98.2001 179.255 98.3273 178.996 98.3273 178.737C98.5817 178.219 98.9634 177.701 98.9634 177.183C99.0906 176.924 98.7089 176.665 98.7089 176.277C98.7089 176.018 98.9634 175.888 98.9634 175.759C99.0906 175.37 99.0906 174.982 99.345 174.593C99.5994 174.075 100.108 173.428 100.49 172.91C100.744 172.651 101.126 172.651 101.253 172.521C101.508 172.392 101.635 172.263 101.762 172.004C101.889 171.745 101.762 171.356 101.889 170.968C102.017 170.579 102.398 170.32 102.525 169.932C102.653 169.673 102.907 169.543 102.907 169.155C102.907 169.025 102.653 168.896 102.653 168.766C102.398 168.507 102.271 168.248 102.144 167.86C102.144 167.73 102.017 167.601 102.144 167.471C102.525 167.471 102.907 167.471 103.161 167.73C103.543 168.119 103.416 168.637 103.67 169.025C103.925 169.284 104.179 169.414 104.306 169.414C104.561 169.414 104.434 169.155 104.434 169.025C104.561 168.896 104.434 168.507 104.561 168.637C104.815 168.637 104.815 169.025 105.07 169.155C105.197 169.155 105.324 168.766 105.451 168.896C105.579 169.025 105.579 169.284 105.451 169.543C105.324 169.673 104.815 169.543 104.688 169.802C104.561 169.932 104.815 170.32 104.688 170.579C104.561 170.838 104.306 170.968 104.052 171.356C103.925 171.486 104.052 171.745 103.798 171.874C103.416 172.133 102.78 171.874 102.525 172.263C102.271 172.651 102.78 173.298 102.653 173.687C102.525 173.946 102.017 173.816 101.762 173.946C101.508 174.075 101.38 174.334 101.253 174.464C100.872 174.852 100.236 175.111 99.8539 175.5C99.7267 175.759 99.7267 176.147 99.8539 176.406C100.108 176.665 100.617 176.795 100.872 176.536C101.126 176.536 101.126 176.018 101.38 175.759C101.635 175.5 102.017 175.241 102.271 174.982C102.78 174.723 103.161 174.464 103.543 174.075C103.925 173.816 104.052 173.428 104.306 173.169C104.688 172.78 105.07 172.78 105.324 172.521C105.706 172.004 105.96 171.486 106.215 170.838C106.469 170.579 106.723 170.191 106.723 169.802C106.978 169.284 106.978 168.766 107.105 168.248C107.105 168.119 106.978 167.86 107.105 167.73C107.232 167.471 107.614 167.471 107.741 167.212C107.868 167.083 107.868 166.824 107.996 166.694C108.25 166.306 108.632 166.306 108.759 165.917C108.886 165.658 108.504 165.27 108.504 165.011C108.504 164.881 108.504 164.622 108.632 164.622C108.886 164.622 109.141 164.881 109.522 164.881C109.777 164.752 109.904 164.363 110.031 164.234C110.285 163.845 110.54 163.586 110.794 163.327C111.303 163.068 111.812 163.068 112.321 162.81C112.575 162.551 112.83 162.162 113.084 161.774C113.211 161.515 113.466 161.256 113.593 160.997C113.72 160.479 113.593 159.961 113.72 159.572C113.848 158.925 114.229 158.407 114.229 157.759C114.356 157.371 113.975 157.241 113.975 156.853C114.102 156.464 114.611 156.076 114.611 155.558C114.611 155.299 114.229 155.04 114.229 154.781C114.102 154.263 114.102 153.745 114.102 153.227C114.102 152.709 114.102 152.321 114.229 151.803C114.229 151.155 114.356 150.637 114.611 149.99C114.738 149.601 115.374 149.472 115.374 148.954C115.374 148.695 114.865 148.565 114.611 148.306V147.918C114.738 147.788 114.865 147.659 114.992 147.529C115.501 147.529 116.01 148.436 116.519 148.306C117.282 148.177 117.155 147.011 117.537 146.493C118.046 145.975 118.554 145.716 119.191 145.328C119.827 144.81 120.59 144.421 121.353 143.903C121.735 143.645 122.116 143.256 122.498 142.997C122.753 142.738 123.007 142.479 123.389 142.35C123.77 142.091 124.279 141.961 124.788 141.702C125.17 141.443 125.551 140.925 126.06 140.925C126.569 140.796 127.205 141.184 127.714 141.184C128.223 141.184 128.859 141.184 129.241 140.925C129.749 140.666 129.877 140.019 130.258 139.76C130.64 139.371 131.276 139.371 131.658 138.983C131.912 138.724 131.785 138.335 132.039 137.947C132.166 137.688 132.294 137.429 132.548 137.299C132.93 137.299 133.311 137.558 133.693 137.688C133.947 137.688 134.329 137.947 134.711 137.947C134.965 137.947 135.22 137.429 135.601 137.299C135.856 137.299 136.237 137.299 136.492 137.429C136.746 137.558 136.746 137.947 137.001 138.206C137.128 138.335 137.382 138.465 137.637 138.465C138.273 138.335 139.036 138.335 139.545 137.947C139.799 137.817 139.672 137.299 139.927 137.17C140.181 137.17 140.308 137.688 140.563 137.817C140.944 137.947 141.58 137.947 141.962 138.076C142.344 138.206 142.471 138.724 142.725 138.594C143.361 138.465 143.997 138.076 144.379 137.558C144.634 137.17 144.379 136.522 144.634 136.263C144.888 135.875 145.397 135.875 145.651 135.616C146.542 135.227 147.432 134.968 148.068 134.321C148.323 134.192 148.196 133.803 148.196 133.544C148.196 133.285 147.814 133.285 147.814 133.156C147.814 132.897 148.068 132.508 148.323 132.508C148.577 132.508 148.832 133.156 148.959 132.897C149.213 132.638 148.832 132.12 148.959 131.602C148.959 131.472 149.086 131.213 149.213 130.954C149.595 130.436 149.977 129.918 150.485 129.4C150.867 128.882 151.503 128.364 151.885 127.846C152.012 127.587 152.012 127.199 152.266 126.94C152.775 126.292 153.411 125.515 153.92 124.868C154.556 124.221 155.192 123.703 155.574 123.055C155.956 122.408 155.956 121.631 156.083 120.854C156.21 120.336 156.083 119.688 156.21 119.041C156.337 118.393 156.465 117.746 156.846 117.228C157.101 116.451 157.609 115.803 157.991 115.156C158.373 114.768 158.882 114.379 159.009 113.861C159.263 113.343 159.009 112.696 159.136 112.178C159.263 111.012 159.645 109.976 160.027 109.07C160.281 108.163 160.79 107.386 161.044 106.609C161.171 106.35 161.426 106.091 161.426 105.832C161.426 105.315 161.171 104.926 161.171 104.408C161.171 104.02 161.553 103.631 161.553 103.243C161.426 102.595 160.917 102.077 160.917 101.43C160.917 100.912 161.171 100.264 161.426 99.7463C161.553 98.8399 162.062 98.0629 162.062 97.2859C162.062 96.509 161.299 95.991 161.299 95.214C161.299 94.5666 161.808 93.9191 162.062 93.2716C162.189 92.8832 162.189 92.4947 162.316 92.2357C162.571 91.9767 163.08 91.8472 163.08 91.5882C163.08 91.1998 162.571 90.9408 162.571 90.5523C162.571 90.2933 162.953 89.9048 163.207 90.0343C163.716 90.2933 163.461 91.1998 163.97 91.4587C164.352 91.7177 164.988 91.3292 165.37 91.0703C165.751 90.8113 166.006 90.2933 166.387 90.0343C167.023 89.3868 167.787 89.1279 168.296 88.4804C168.804 87.9624 169.059 87.1855 169.44 86.538V86.4085C169.44 86.02 169.568 85.5021 169.695 85.1136C169.822 84.7251 170.204 84.3366 170.331 83.8186C170.458 83.5597 170.204 83.3007 170.331 83.1712C170.585 83.0417 170.84 83.5597 170.967 83.4302C171.349 83.1712 171.349 82.5237 171.603 82.1352C171.985 81.7467 172.494 81.3583 173.002 80.9698C173.766 80.1928 174.529 79.4159 175.42 78.7684C175.801 78.5094 176.183 78.2504 176.565 77.862C176.819 77.603 176.692 77.085 176.946 76.826C177.201 76.6965 177.582 76.826 177.837 76.6965C178.091 76.4375 178.346 76.1785 178.473 75.7901C178.6 75.6606 178.346 75.2721 178.473 75.0131C178.982 74.3656 179.745 73.9772 180.254 73.3297C180.763 72.8117 181.271 72.1643 181.526 71.5168C182.035 70.7398 182.162 69.9629 182.544 69.0564C182.925 68.15 183.434 67.2435 183.689 66.2076C183.816 65.1716 183.816 64.1357 183.689 63.2292C183.689 61.9343 183.689 60.7688 183.561 59.4739C183.434 58.8265 183.307 58.0495 183.18 57.2725C183.052 56.7546 183.052 56.2366 182.925 55.5891C182.544 54.5532 182.162 53.5172 181.653 52.6108C181.399 52.2223 181.017 51.9633 180.635 51.8338C179.618 51.4453 178.6 51.3158 177.582 51.1863C176.819 51.0569 176.056 51.4453 175.292 51.3158C174.402 51.0569 173.639 50.4094 172.875 50.0209C171.985 49.3734 171.349 48.726 170.585 48.208C169.695 47.5605 168.932 46.9131 168.168 46.1361C167.405 45.4886 166.769 44.7117 166.006 43.9347C165.37 43.4168 164.734 42.7693 163.97 42.3808C163.207 41.8628 162.189 41.8628 161.299 41.4744C160.79 41.0859 160.281 40.5679 159.645 40.3089C158.882 40.0499 158.118 40.0499 157.355 39.9204C156.592 39.9204 155.701 40.0499 154.938 40.1794C154.429 40.3089 153.92 40.8269 153.284 40.8269C152.648 40.6974 152.139 40.0499 151.503 39.7909C151.122 39.6615 150.613 39.4025 150.104 39.4025C149.595 39.273 148.959 39.6615 148.45 39.532C148.196 39.4025 148.068 38.8845 147.814 38.8845C147.305 38.6255 146.669 38.8845 146.16 38.755C145.906 38.6255 145.906 38.1075 145.651 37.978C145.015 37.7191 144.252 37.7191 143.616 37.4601C143.489 37.4601 143.361 37.0716 143.107 37.0716C142.853 37.2011 142.98 37.8485 142.725 37.978C142.344 38.1075 141.962 37.8485 141.708 37.5896C141.453 37.4601 141.58 36.8126 141.326 36.9421C140.944 37.2011 141.072 37.8485 140.817 38.237C140.563 38.3665 140.308 38.3665 140.054 38.237C139.799 38.237 139.545 37.978 139.418 37.8485C139.163 37.7191 138.909 37.5896 138.654 37.7191C138.4 38.1075 138.4 38.755 138.273 39.273C138.018 39.6615 137.891 40.0499 137.51 40.4384C137.255 40.6974 136.746 40.8269 136.492 41.2154C136.237 41.7333 136.365 43.4168 136.11 42.8988C135.856 42.2513 136.11 41.4744 136.365 40.8269C136.365 40.5679 136.619 40.1794 136.746 39.7909C136.873 39.532 136.746 39.273 136.873 39.014C137.001 38.6255 137.255 38.237 137.51 37.8485C137.637 37.5896 137.891 37.3306 138.146 37.0716C138.273 36.9421 138.654 36.8126 138.654 36.6831C138.527 36.4241 138.273 36.1651 138.018 36.1651C137.764 36.2946 137.51 36.9421 137.255 36.6831C137.001 36.5536 137.382 36.1651 137.51 35.9061C137.637 35.6472 138.018 35.5177 138.018 35.2587C138.018 34.8702 137.764 34.6112 137.51 34.3522C137.382 34.2227 137.001 34.3522 136.873 34.2227C136.619 33.8343 136.492 33.3163 136.237 33.0573C136.11 32.9278 135.856 33.0573 135.729 32.9278C135.474 32.9278 135.347 32.5393 135.092 32.6688C134.711 32.6688 134.456 32.9278 134.329 33.3163C134.202 33.7048 134.838 34.3522 134.456 34.4817C133.947 34.6112 133.693 33.8343 133.566 33.4458C133.439 33.0573 134.075 32.7983 134.075 32.4098C133.947 32.1508 133.693 32.0214 133.311 32.0214C133.184 31.8919 133.184 32.2803 133.057 32.2803C132.803 32.1508 133.057 31.6329 132.803 31.6329C132.421 31.5034 132.039 31.8919 131.658 31.8919C131.276 31.8919 130.894 31.3739 130.513 31.3739C130.385 31.3739 130.258 31.8919 130.131 31.7624C129.877 31.5034 130.131 30.8559 129.877 30.7264C129.495 30.5969 129.113 31.3739 128.732 31.2444C128.35 31.1149 128.35 30.2084 127.841 29.9495C127.205 29.561 126.569 29.561 125.806 29.4315C125.17 29.1725 124.534 28.784 123.897 28.6545C123.643 28.6545 124.279 29.302 124.025 29.1725C123.516 29.1725 123.007 28.525 122.498 28.3955C122.116 28.3955 121.989 28.9135 121.862 28.9135C121.48 29.1725 121.099 29.043 120.844 29.302C120.463 29.4315 120.335 29.82 120.081 30.079C119.699 30.4674 119.318 30.8559 118.936 31.2444C118.682 31.5034 118.173 31.7624 118.173 32.0214C118.173 32.6688 119.318 33.0573 118.936 33.4458C118.682 33.8343 118.046 32.9278 117.664 32.9278C117.155 33.0573 116.901 33.7048 116.519 33.9637C116.265 34.0932 116.137 33.9637 116.01 33.9637C115.501 33.9637 114.992 33.8343 114.484 34.0932C113.975 34.2227 113.593 34.8702 113.084 35.1292C112.703 35.2587 112.321 35.1292 111.939 35.1292C111.43 35.1292 110.922 34.7407 110.413 34.8702C110.031 35.1292 110.158 36.1651 109.649 36.0356C108.886 36.0356 108.759 34.7407 108.123 34.6112C107.741 34.4817 107.741 35.5177 107.36 35.6472C106.978 35.7767 106.723 35.2587 106.723 34.8702C106.851 34.4817 107.614 34.4817 107.868 33.9637C107.996 33.5753 107.996 32.9278 107.868 32.5393C107.741 32.1508 107.614 31.6329 107.232 31.6329C106.215 31.6329 105.324 32.2803 104.306 32.6688C103.416 32.9278 102.398 33.4458 101.508 33.5753C100.872 33.7048 100.236 33.9638 99.7266 33.5753C99.4722 33.4458 100.108 32.9278 100.363 32.7983C100.999 32.5393 101.889 32.9278 102.525 32.5393C103.034 32.0214 103.034 31.2444 103.289 30.4674C103.289 30.3379 103.289 30.079 103.416 29.9495C103.925 29.043 104.434 28.0071 105.07 27.2301C105.833 26.1942 106.596 25.4172 107.487 24.5107C107.868 24.1223 108.504 23.8633 108.886 23.3453C109.649 22.6978 110.158 21.9209 110.667 21.1439C111.176 20.4965 111.812 19.7195 111.939 18.813C111.939 18.2951 111.558 17.7771 111.176 17.5181C110.413 17.1296 109.522 17.6476 108.886 17.2591C108.377 17.0001 108.25 16.3527 108.123 15.8347C107.996 15.5757 108.25 15.3167 108.25 14.9282C108.123 14.4103 107.868 13.8923 107.614 13.3743C107.232 12.5974 106.851 11.9499 106.596 11.0435C106.469 10.2665 106.469 9.48953 106.342 8.71257C106.215 8.1946 106.342 7.54713 106.087 7.02916C105.706 6.2522 105.197 5.08676 104.306 4.95727C103.798 4.95727 104.942 6.2522 104.688 6.77017C104.434 7.15865 104.052 5.86372 103.67 5.99321C102.78 6.64068 102.271 7.80612 101.635 8.71257C100.999 9.87801 100.363 11.0435 99.7266 12.2089C99.4722 12.8564 99.2178 13.3743 98.9634 13.8923C98.7089 14.4103 98.7089 15.0577 98.3273 15.3167C97.8184 15.7052 97.0551 15.9642 96.4191 15.8347C95.783 15.7052 95.6558 14.9282 95.1469 14.7988C94.8925 14.6693 94.6381 15.1872 94.3836 15.1872C94.1292 15.1872 93.8748 14.6693 93.6203 14.6693C92.857 14.7988 92.4754 15.7052 91.8393 15.7052C91.2032 15.8347 90.8216 15.1872 90.1855 14.9282C90.0583 14.9282 89.8039 15.3167 89.6767 15.1872C89.0406 14.7988 88.659 13.6333 87.8957 13.6333C86.8779 13.5038 85.8602 14.6693 84.8425 14.7988C84.3336 14.7988 83.952 13.8923 83.5704 14.0218C82.9343 14.1513 82.4254 14.6693 82.2982 15.3167C82.2982 15.9642 83.1887 16.4822 83.1887 17.1296C83.1887 17.3886 82.6798 17.6476 82.4254 17.5181C81.7893 17.2591 81.4077 16.3527 80.7716 16.2232C80.5172 16.0937 81.026 16.8706 80.7716 17.1296C80.5172 17.3886 79.8811 17.6476 79.3723 17.6476C78.9906 17.6476 78.609 17.1296 78.1001 17.1296C77.464 17.0001 76.5735 16.8706 75.9374 17.2591C75.683 17.3886 76.3191 18.0361 75.9374 18.1656C75.3014 18.5541 74.2837 18.1656 73.5204 18.4246C73.2659 18.4246 73.7748 18.9425 73.5204 19.072C73.1387 19.2015 72.7571 18.6835 72.5026 18.813C71.7394 19.2015 71.6121 20.2375 70.8488 20.4965C70.34 20.7554 69.5767 20.367 69.0678 20.108C68.3046 19.7195 67.5413 19.2015 67.0324 18.5541C66.6508 18.1656 66.5235 17.6476 66.3963 17.1296C66.3963 16.6117 66.9052 16.0937 66.778 15.5757C66.6508 15.1872 65.8875 15.0577 65.7603 14.6693C65.5058 14.0218 65.3786 13.1153 65.3786 12.4679C65.5058 12.0794 66.0147 11.9499 66.1419 11.6909C66.3963 11.3024 66.0147 10.914 66.2691 10.5255C66.6508 10.0075 67.5413 10.0075 67.6685 9.48953C67.9229 8.71257 67.4141 8.06511 67.2868 7.28815C67.1596 6.77017 66.9052 6.2522 66.778 5.86372C66.5235 5.60473 66.3963 5.21626 66.1419 5.08676C65.8875 4.95727 65.3786 5.21626 65.1242 4.95727C64.6153 4.4393 64.3609 3.79183 64.3609 3.14436C64.2337 2.62639 64.8698 2.23791 64.7425 1.71994C64.6153 1.46095 64.1065 1.20197 63.7248 1.20197C63.3432 1.33146 63.216 1.84943 62.8343 2.10842C62.5799 2.23791 62.3254 2.23791 62.071 2.10842C61.6894 1.97892 61.4349 1.20197 61.3077 1.46095C61.0533 1.84943 61.6894 2.23791 61.6894 2.62639C61.8166 3.01487 61.8166 3.40335 61.5622 3.66234C61.1805 4.18031 60.6717 4.56879 60.0356 4.82778C59.3995 5.21626 58.509 5.21626 57.8729 5.60473C57.4913 5.86372 57.4913 6.51119 57.1096 6.77017C56.6008 7.02916 55.8375 7.02916 55.3286 7.15865C54.5653 7.28815 53.9293 6.89967 53.2932 7.15865C52.6571 7.41764 52.1483 7.80612 51.7666 8.32409C51.6394 8.71257 52.021 9.10105 51.8938 9.48953C51.7666 9.74852 51.385 9.61902 51.2577 9.48953C50.8761 9.23055 50.7489 8.58308 50.3672 8.45359C49.9856 8.1946 49.4767 8.45359 49.0951 8.32409C48.3318 8.1946 47.5685 7.93561 46.9324 7.54713C46.4236 7.28815 46.2964 6.2522 45.6603 6.2522C45.0242 6.2522 44.3881 7.02916 44.0065 7.67663C43.7521 8.06511 43.8793 8.84207 44.2609 9.10105C44.7698 9.48953 45.6603 8.84207 46.1691 9.36004C46.5508 9.61903 46.4236 10.2665 46.2964 10.7845C46.1691 11.1729 45.9147 11.4319 45.6603 11.8204C45.5331 12.2089 45.2786 12.5974 45.2786 13.1153C45.2786 13.7628 45.4059 14.2808 45.5331 14.9282C45.6603 15.3167 45.7875 15.5757 46.0419 15.8347C46.1691 16.0937 46.5508 16.0937 46.8052 16.0937C47.0597 16.2232 47.4413 16.6117 47.8229 16.4822C48.0774 16.4822 48.3318 15.9642 48.5862 15.9642C49.0951 16.0937 49.7312 16.7412 49.3495 17.0001C48.7134 17.6476 47.5685 17.0001 46.9324 17.6476C46.0419 18.2951 46.2964 19.9785 45.4059 20.6259C45.0242 21.0144 45.0242 19.59 44.5154 19.59C44.0065 19.59 43.8793 20.4965 43.4976 20.8849C42.6071 21.6619 41.7166 22.1799 40.9533 22.8273C40.5717 23.2158 40.4445 24.2518 39.9356 24.1223C39.2995 24.1223 39.6812 22.9568 39.1723 22.5683C38.7907 22.3094 38.2818 22.1799 37.9002 22.5683C37.5185 22.9568 37.9002 24.2518 37.2641 24.2518C36.3736 24.3813 35.8647 23.3453 35.1014 22.8273C34.4654 22.4389 33.7021 22.1799 33.3204 21.5324C33.066 21.2734 33.4476 20.7554 33.3204 20.367C32.8116 19.331 32.4299 17.9066 31.4122 17.5181C30.6489 17.2591 30.5217 19.072 29.7584 19.2015C29.2496 19.331 29.1223 18.2951 28.6135 18.0361C28.2318 17.9066 27.723 17.9066 27.5958 18.2951C27.4685 18.6835 28.4863 19.4605 27.9774 19.59C26.3236 20.2375 24.5426 19.849 22.7616 19.849C22.1255 19.849 21.1078 19.331 20.8534 19.9785C20.4717 21.0144 20.7261 22.3094 21.235 23.4748C21.3622 23.8633 22.1255 23.4748 22.5072 23.4748C22.8888 23.3453 23.2704 23.0863 23.5249 23.3453C23.9065 23.6043 23.7793 24.2518 23.7793 24.6402C23.6521 25.0287 23.3977 25.5467 23.016 25.5467C22.6344 25.5467 22.3799 24.6402 21.8711 24.6402C21.235 24.7697 20.3445 25.1582 20.0901 25.8057C19.7084 26.8416 19.9629 28.0071 20.0901 29.043C20.2173 29.4315 20.4717 29.6905 20.8534 30.079C21.1078 30.2084 21.6167 30.2084 21.7439 30.5969C22.1255 30.9854 21.9983 31.5034 22.2527 32.0214C22.3799 32.4098 22.7616 32.6688 22.7616 33.0573C22.7616 33.7048 22.3799 34.2227 22.3799 34.8702C22.3799 35.3882 22.6344 36.0356 22.5072 36.5536C22.1255 39.4025 21.6167 42.3808 20.9806 45.2297C20.7261 46.3951 20.7261 47.8195 19.9629 48.5965C19.5812 48.985 18.9451 47.5605 18.4363 47.69C17.673 47.8195 17.4186 48.8555 16.6553 48.985C16.2736 49.1145 15.892 48.3375 15.5103 48.467C15.1287 48.467 15.0015 48.985 14.6198 49.1145C14.2382 49.3734 13.7293 48.985 13.3477 49.1145C12.5844 49.5029 12.0755 50.1504 11.4395 50.6684C10.8034 51.1863 10.0401 51.4453 9.53123 52.0928C8.89515 52.7403 8.51351 53.6467 8.25908 54.4237C8.00465 55.0711 7.87743 55.7186 7.75022 56.3661C7.75022 56.884 7.87743 57.402 7.75022 57.92C7.62301 58.5675 7.62301 59.3444 7.11415 59.8624C6.85972 60.3804 5.96921 60.1214 5.71478 60.6394C5.33314 61.2868 5.46035 62.0638 5.46035 62.7112C5.46035 63.0997 5.71478 63.6177 5.46035 63.8767C5.20592 64.2652 4.56985 64.0062 4.44263 64.3947C4.31542 64.6536 4.56985 65.0421 4.69706 65.3011C4.95149 65.5601 5.33314 65.5601 5.58757 65.8191C5.842 66.0781 5.71478 66.596 5.842 66.855C5.96921 67.2435 6.09643 67.632 6.35086 67.891ZM104.306 29.9495C104.688 29.302 105.07 28.525 105.579 27.8776C105.96 27.4891 106.596 26.3237 106.978 26.7121C107.487 27.3596 106.851 28.3955 106.596 29.043C106.342 29.82 105.833 30.5969 105.197 31.1149C104.688 31.6329 103.798 32.9278 103.289 32.2803C102.653 31.6329 103.925 30.7264 104.306 29.9495ZM108.504 28.1366C108.377 28.6545 108.886 29.1725 108.886 29.6905C108.759 30.2084 108.123 30.4674 108.123 30.8559C107.996 31.5034 108.123 32.2803 108.504 32.7983C108.759 33.0573 109.395 32.7983 109.649 33.0573C109.904 33.3163 109.395 33.8343 109.649 33.9637C110.285 34.2227 110.922 33.9637 111.43 34.0932C111.812 34.0932 112.067 34.4817 112.448 34.3522C112.703 34.3522 112.575 33.8343 112.83 33.5753C113.339 33.3163 113.848 33.4458 114.229 33.1868C114.738 33.0573 114.992 32.5393 115.501 32.5393C115.756 32.5393 115.883 33.0573 116.265 33.0573C116.519 33.0573 116.901 32.7983 117.028 32.4098C117.028 32.0214 116.392 31.3739 116.646 30.9854C117.028 30.3379 118.046 30.3379 118.554 29.6905C119.063 29.043 120.208 28.1366 119.699 27.3596C119.063 26.4531 117.41 26.1942 116.392 26.7121C115.629 27.2301 116.392 28.784 115.756 29.561C115.501 29.9495 115.247 28.6545 115.247 28.1366C115.247 27.8776 115.883 28.0071 115.883 27.7481C115.883 27.3596 115.629 26.9711 115.374 26.8416C114.484 26.4531 113.593 26.5826 112.703 26.5826C111.939 26.4531 111.049 26.4531 110.285 26.5826C109.904 26.7121 109.649 27.1006 109.268 27.3596C109.013 27.6186 108.504 27.7481 108.504 28.1366ZM110.922 25.8057C111.685 25.6762 112.448 25.9352 112.957 25.5467C113.339 25.2877 113.72 24.5107 113.466 24.2518C112.83 23.7338 111.812 24.3813 111.176 23.9928C110.922 23.7338 111.939 22.8273 111.558 22.8273C110.794 22.8273 110.158 23.3453 109.649 23.8633C109.268 24.1223 108.886 24.5107 108.886 25.0287C108.759 25.4172 108.886 25.9352 109.268 26.0647C109.522 26.1942 109.522 25.5467 109.649 25.2877C109.904 25.0287 109.904 24.6402 110.285 24.5107C110.413 24.3813 110.794 24.6402 110.667 24.8992C110.667 25.2877 109.904 25.5467 110.031 25.8057C110.031 26.1942 110.667 25.8057 110.922 25.8057ZM107.487 25.6762C106.978 25.8057 107.232 26.9711 107.487 27.3596C107.741 27.7481 108.504 27.4891 108.504 27.2301C108.504 26.5826 108.123 25.5467 107.487 25.6762Z" fill="#39393A"/>
<path d="M6.35086 67.891C6.60529 68.409 7.11415 68.6679 7.49579 69.0564C7.75022 69.4449 8.00465 69.9629 8.25908 70.4808C8.51351 70.9988 9.02237 71.3873 9.02237 71.9053C9.02237 72.2937 8.38629 72.5527 8.25908 72.9412C8.25908 73.2002 8.25908 73.4592 8.3863 73.8477L8.76794 74.2361C9.2768 74.2361 9.40401 73.7182 9.78566 73.4592H10.4217C10.6762 73.5887 10.6762 74.1067 10.9306 74.1067C11.0578 74.2361 11.3122 73.7182 11.5667 73.8477C11.8211 73.8477 12.0755 73.9772 12.2027 74.2361C12.5844 74.7541 12.4572 75.4016 12.8388 75.9196C13.0932 76.308 13.6021 76.4375 14.111 76.567C14.4926 76.567 15.0015 76.4375 15.2559 76.1785C15.6375 75.7901 15.6375 75.2721 15.892 75.0131C16.1464 74.7541 16.5281 74.8836 16.7825 74.7541C17.0369 74.6246 17.2913 74.3656 17.673 74.2361C17.8002 74.1067 18.1818 73.7182 18.3091 73.8477C18.6907 74.3656 18.5635 75.0131 18.5635 75.5311C18.6907 77.085 18.1818 78.7684 18.6907 80.1928C18.8179 80.7108 19.5812 80.5813 20.0901 80.4518C20.5989 80.3223 20.9806 79.8044 21.4894 79.8044C22.1255 79.6749 22.7616 79.8044 23.2704 79.8044C24.0337 79.9338 24.9242 79.9338 25.6875 79.9338C26.578 80.0633 27.4685 80.1928 28.359 79.9338C28.7407 79.9338 29.1223 79.4159 29.2496 79.0274C29.504 78.7684 29.2495 78.2504 29.504 77.9914C29.6312 77.862 30.1401 77.862 30.3945 77.862C30.6489 77.862 30.7761 78.2504 30.9033 78.1209C31.4122 77.9914 31.7938 77.603 32.0483 77.344C32.4299 76.9555 32.5571 76.308 32.9388 76.049C33.1932 75.9196 33.4476 76.4375 33.5749 76.308C33.9565 76.049 34.0837 75.5311 34.3382 75.1426C34.7198 74.7541 35.2287 74.3656 35.6103 74.2361C36.2464 73.9772 37.0097 73.8477 37.6457 73.7182C38.0274 73.7182 38.2818 73.5887 38.6635 73.5887C39.0451 73.5887 39.4268 73.7182 39.8084 73.7182C40.0628 73.7182 40.3173 73.4592 40.5717 73.4592C40.6989 73.3297 40.9533 73.0707 41.0805 73.3297C41.4622 73.7182 41.5894 74.4951 41.5894 75.0131C41.5894 75.5311 41.0805 75.7901 41.0805 76.1785C40.9533 76.6965 41.0805 77.2145 41.2078 77.603C41.335 77.9914 41.7166 78.1209 41.8438 78.5094C41.9711 78.8979 41.9711 79.2864 41.8438 79.6749C41.7166 79.9338 41.2078 79.8044 41.2078 80.0633C41.2078 80.5813 41.4622 80.9698 41.5894 81.3583C41.8438 81.8762 41.8438 82.3942 42.2255 82.9122C42.6071 83.5597 43.116 84.2071 43.7521 84.5956C44.2609 84.9841 44.897 84.9841 45.4059 85.2431C45.6603 85.5021 45.5331 86.1495 45.9147 86.4085C46.2964 86.6675 46.8052 86.6675 47.1869 86.538C47.6957 86.538 48.0774 86.4085 48.459 86.279C48.5862 86.279 48.7134 86.02 48.9679 86.02C49.4767 86.1495 50.1128 86.538 50.6217 86.797C51.0033 87.056 51.1305 87.5739 51.5122 87.8329C51.8938 87.9624 52.2755 87.7034 52.5299 87.9624C53.0388 88.0919 53.2932 88.7394 53.802 88.8689C54.1837 89.1279 54.6926 89.2574 55.0742 89.2574C55.3286 89.3868 55.7103 89.1279 55.9647 89.3868C56.4736 89.7753 56.728 90.5523 57.3641 90.9408C57.7457 91.1998 58.3818 91.3292 59.0179 91.1998C59.2723 91.0703 59.2723 90.4228 59.6539 90.4228C60.1628 90.2933 60.5444 90.6818 61.0533 90.8113C61.4349 91.0703 61.8166 91.3292 62.1982 91.5882C62.7071 91.8472 63.4704 91.9767 63.7248 92.4947C63.9792 92.8832 63.4704 93.5306 63.5976 94.0486C63.7248 94.6961 64.2337 95.214 64.4881 95.8615C64.6153 96.25 64.4881 96.8975 64.4881 97.4154C64.4881 97.5449 64.6153 97.6744 64.4881 97.8039C64.1065 97.9334 63.7248 97.6744 63.4704 97.8039C63.3432 97.9334 63.4704 98.3219 63.5976 98.4514C63.7248 98.7104 64.1065 98.8399 64.2337 99.2283C64.4881 99.7463 64.6153 100.394 64.6153 101.041C64.7425 101.559 64.6153 102.077 64.7425 102.466C64.8698 102.984 65.2514 103.502 65.633 103.631C66.6508 103.89 67.7957 103.631 68.9406 103.631C69.9584 103.761 70.9761 103.761 71.9938 103.761C72.2482 103.89 72.8843 103.502 72.8843 103.89C73.0115 104.279 72.2482 104.538 72.121 105.056C72.121 105.444 72.5026 105.703 72.6299 105.962C72.8843 106.48 72.8843 107.127 73.1387 107.516C73.3932 107.904 73.7748 108.034 74.1564 108.293C74.5381 108.681 74.7925 109.07 75.1742 109.458C75.5558 109.847 75.9374 110.365 76.1919 110.883C76.4463 111.401 76.4463 111.919 76.4463 112.566C76.4463 113.084 76.3191 113.602 76.0647 114.12C75.9375 114.768 75.5558 115.415 75.3014 116.062C75.1742 116.839 74.9197 117.487 74.6653 118.134C74.5381 118.523 74.1564 119.041 74.2837 119.429C74.4109 119.818 74.9197 119.818 75.1742 119.947C75.3014 120.206 75.4286 120.465 75.3014 120.595C75.1742 120.854 74.7925 120.595 74.5381 120.854C74.2837 121.113 74.1564 121.631 74.2837 122.019C74.2837 122.537 74.6653 122.926 74.7925 123.444C74.9197 123.703 75.0469 123.962 75.1742 124.35C75.3014 124.609 75.5558 124.868 75.5558 125.256C75.683 125.774 75.683 126.292 75.5558 126.94C75.5558 127.199 75.4286 127.458 75.3014 127.846C75.3014 128.105 75.4286 128.494 75.4286 128.753C75.4286 129.141 75.1742 129.53 75.1742 129.918C75.1742 130.307 75.1742 130.825 75.5558 131.084C75.9374 131.213 76.3191 130.695 76.7007 130.695C77.0824 130.695 77.5912 130.825 78.1001 130.825C78.4818 130.954 78.9906 130.825 79.3723 130.954C79.7539 130.954 80.0083 131.213 80.2628 131.213C80.5172 131.343 80.8988 131.472 81.1533 131.472C81.4077 131.343 81.4077 130.566 81.7893 130.695C82.171 130.695 82.171 131.343 82.5526 131.602C83.0615 131.861 83.8248 131.602 84.3336 131.861C84.7153 132.249 84.9697 133.026 85.0969 133.544C85.4786 134.58 85.4786 135.486 85.733 136.522C85.8602 137.04 85.8602 137.817 86.3691 138.206C86.6235 138.465 87.2596 138.465 87.7684 138.594C88.4045 138.594 89.0406 138.335 89.5495 138.465C90.0583 138.594 90.8216 138.853 90.9488 139.371C91.2032 140.019 90.44 140.666 90.44 141.314C90.44 141.832 90.8216 142.22 90.6944 142.738C90.6944 143.127 90.3127 143.515 90.3127 144.033C90.1855 144.292 90.6944 144.421 90.5672 144.68C90.44 144.939 90.0583 144.81 89.9311 145.069C89.8039 145.328 89.8039 145.716 89.9311 146.105C89.9311 146.493 89.9311 146.882 90.3127 147.011C90.8216 147.141 91.5849 146.493 92.0938 146.752C92.7298 147.141 92.9843 148.047 93.2387 148.695C93.4931 149.083 93.6203 149.601 93.6203 149.99C93.4931 150.249 93.1115 150.378 93.1115 150.637C92.9843 151.026 93.2387 151.414 93.2387 151.932C93.2387 152.321 93.1115 152.709 92.9843 153.098C92.7298 153.615 92.6026 154.004 92.221 154.392C91.9665 154.651 91.7121 154.781 91.3305 154.91C90.9488 155.04 90.44 154.91 89.9311 155.04C89.4222 155.299 89.0406 155.817 88.6589 156.076C88.2773 156.335 88.0229 156.723 87.6412 156.982C87.1324 157.371 86.4963 157.63 85.8602 158.018C85.6058 158.277 85.4786 158.666 85.0969 159.054C84.8425 159.443 84.4609 159.831 84.2064 160.22C83.952 160.479 83.8248 160.738 83.5704 160.997C83.1887 161.385 82.8071 161.515 82.4254 161.774C82.171 162.162 82.0438 162.68 81.7893 162.939C81.5349 163.327 81.1533 163.457 80.8988 163.845C80.6444 164.234 80.6444 164.881 80.2628 165.27C79.8811 165.658 79.245 165.529 78.9906 165.917C78.609 166.176 78.609 166.694 78.4818 167.083C78.3545 167.342 78.1001 167.73 78.3545 167.86C78.609 168.119 78.9906 167.601 79.245 167.73C79.4995 167.73 79.6267 168.119 79.7539 168.119C80.0083 168.119 80.1355 167.86 80.2628 167.73C80.39 167.601 80.39 167.342 80.5172 167.212C80.7716 167.083 81.1533 166.953 81.4077 166.953C81.6621 166.953 81.6621 167.342 81.9165 167.471C82.0438 167.601 82.2982 167.601 82.4254 167.73C82.6798 167.989 82.5526 168.378 82.8071 168.637C83.0615 168.896 83.5704 168.896 83.6976 169.025C83.952 169.284 83.952 169.673 84.0792 169.932C84.2064 170.32 84.3336 170.709 84.4609 170.838C84.5881 170.968 84.8425 170.968 85.0969 170.838C85.2241 170.838 85.4786 170.709 85.733 170.579C85.8602 170.45 85.9874 170.45 85.9874 170.32C86.1146 170.191 85.9874 169.932 85.9874 169.802C86.1146 169.673 86.2419 169.673 86.3691 169.673C86.6235 169.673 87.1324 169.673 87.1324 169.932C87.2596 170.191 86.7507 170.45 86.6235 170.709C86.6235 170.968 86.7507 171.227 86.8779 171.356C87.2596 171.874 87.7684 172.392 88.4045 172.651C88.7862 172.91 89.4222 172.91 89.8039 173.169C90.1855 173.428 90.5672 173.816 90.8216 174.075C91.076 174.464 91.2032 174.852 91.5849 175.111C91.9665 175.5 92.6026 175.5 92.9843 176.018C93.4931 176.406 93.4931 177.183 93.8748 177.701C94.8925 179.126 96.2918 178.349 95.2741 180.032C95.2741 180.162 95.0197 180.291 94.8925 180.421C94.638 180.55 94.5108 180.55 94.3836 180.68C94.2564 180.939 94.1292 181.068 94.1292 181.327C94.1292 181.586 94.002 181.975 94.1292 182.363C94.1292 182.622 94.3836 182.881 94.5108 183.01C94.7653 183.14 94.8925 183.14 95.1469 183.01C95.2741 183.01 95.4013 182.751 95.5286 182.622C95.9102 182.492 96.2918 182.363 96.5463 182.233C96.9279 181.975 97.4368 181.716 97.6912 181.327C97.9456 181.068 97.9456 180.68 97.9456 180.291C98.0729 180.032 98.0729 179.773 98.0729 179.514C98.2001 179.255 98.3273 178.996 98.3273 178.737C98.5817 178.219 98.9634 177.701 98.9634 177.183C99.0906 176.924 98.7089 176.665 98.7089 176.277C98.7089 176.018 98.9634 175.888 98.9634 175.759C99.0906 175.37 99.0906 174.982 99.345 174.593C99.5994 174.075 100.108 173.428 100.49 172.91C100.744 172.651 101.126 172.651 101.253 172.521C101.508 172.392 101.635 172.263 101.762 172.004C101.889 171.745 101.762 171.356 101.889 170.968C102.017 170.579 102.398 170.32 102.525 169.932C102.653 169.673 102.907 169.543 102.907 169.155C102.907 169.025 102.653 168.896 102.653 168.766C102.398 168.507 102.271 168.248 102.144 167.86C102.144 167.73 102.017 167.601 102.144 167.471C102.525 167.471 102.907 167.471 103.161 167.73C103.543 168.119 103.416 168.637 103.67 169.025C103.925 169.284 104.179 169.414 104.306 169.414C104.561 169.414 104.434 169.155 104.434 169.025C104.561 168.896 104.434 168.507 104.561 168.637C104.815 168.637 104.815 169.025 105.07 169.155C105.197 169.155 105.324 168.766 105.451 168.896C105.579 169.025 105.579 169.284 105.451 169.543C105.324 169.673 104.815 169.543 104.688 169.802C104.561 169.932 104.815 170.32 104.688 170.579C104.561 170.838 104.306 170.968 104.052 171.356C103.925 171.486 104.052 171.745 103.798 171.874C103.416 172.133 102.78 171.874 102.525 172.263C102.271 172.651 102.78 173.298 102.653 173.687C102.525 173.946 102.017 173.816 101.762 173.946C101.508 174.075 101.38 174.334 101.253 174.464C100.872 174.852 100.236 175.111 99.8539 175.5C99.7267 175.759 99.7267 176.147 99.8539 176.406C100.108 176.665 100.617 176.795 100.872 176.536C101.126 176.536 101.126 176.018 101.38 175.759C101.635 175.5 102.017 175.241 102.271 174.982C102.78 174.723 103.161 174.464 103.543 174.075C103.925 173.816 104.052 173.428 104.306 173.169C104.688 172.78 105.07 172.78 105.324 172.521C105.706 172.004 105.96 171.486 106.215 170.838C106.469 170.579 106.723 170.191 106.723 169.802C106.978 169.284 106.978 168.766 107.105 168.248C107.105 168.119 106.978 167.86 107.105 167.73C107.232 167.471 107.614 167.471 107.741 167.212C107.868 167.083 107.868 166.824 107.996 166.694C108.25 166.306 108.632 166.306 108.759 165.917C108.886 165.658 108.504 165.27 108.504 165.011C108.504 164.881 108.504 164.622 108.632 164.622C108.886 164.622 109.141 164.881 109.522 164.881C109.777 164.752 109.904 164.363 110.031 164.234C110.285 163.845 110.54 163.586 110.794 163.327C111.303 163.068 111.812 163.068 112.321 162.81C112.575 162.551 112.83 162.162 113.084 161.774C113.211 161.515 113.466 161.256 113.593 160.997C113.72 160.479 113.593 159.961 113.72 159.572C113.848 158.925 114.229 158.407 114.229 157.759C114.356 157.371 113.975 157.241 113.975 156.853C114.102 156.464 114.611 156.076 114.611 155.558C114.611 155.299 114.229 155.04 114.229 154.781C114.102 154.263 114.102 153.745 114.102 153.227C114.102 152.709 114.102 152.321 114.229 151.803C114.229 151.155 114.356 150.637 114.611 149.99C114.738 149.601 115.374 149.472 115.374 148.954C115.374 148.695 114.865 148.565 114.611 148.306V147.918C114.738 147.788 114.865 147.659 114.992 147.529C115.501 147.529 116.01 148.436 116.519 148.306C117.282 148.177 117.155 147.011 117.537 146.493C118.046 145.975 118.554 145.716 119.191 145.328C119.827 144.81 120.59 144.421 121.353 143.903C121.735 143.645 122.116 143.256 122.498 142.997C122.753 142.738 123.007 142.479 123.389 142.35C123.77 142.091 124.279 141.961 124.788 141.702C125.17 141.443 125.551 140.925 126.06 140.925C126.569 140.796 127.205 141.184 127.714 141.184C128.223 141.184 128.859 141.184 129.241 140.925C129.749 140.666 129.877 140.019 130.258 139.76C130.64 139.371 131.276 139.371 131.658 138.983C131.912 138.724 131.785 138.335 132.039 137.947C132.166 137.688 132.294 137.429 132.548 137.299C132.93 137.299 133.311 137.558 133.693 137.688C133.947 137.688 134.329 137.947 134.711 137.947C134.965 137.947 135.22 137.429 135.601 137.299C135.856 137.299 136.237 137.299 136.492 137.429C136.746 137.558 136.746 137.947 137.001 138.206C137.128 138.335 137.382 138.465 137.637 138.465C138.273 138.335 139.036 138.335 139.545 137.947C139.799 137.817 139.672 137.299 139.927 137.17C140.181 137.17 140.308 137.688 140.563 137.817C140.944 137.947 141.58 137.947 141.962 138.076C142.344 138.206 142.471 138.724 142.725 138.594C143.361 138.465 143.997 138.076 144.379 137.558C144.634 137.17 144.379 136.522 144.634 136.263C144.888 135.875 145.397 135.875 145.651 135.616C146.542 135.227 147.432 134.968 148.068 134.321C148.323 134.192 148.196 133.803 148.196 133.544C148.196 133.285 147.814 133.285 147.814 133.156C147.814 132.897 148.068 132.508 148.323 132.508C148.577 132.508 148.832 133.156 148.959 132.897C149.213 132.638 148.832 132.12 148.959 131.602C148.959 131.472 149.086 131.213 149.213 130.954C149.595 130.436 149.977 129.918 150.485 129.4C150.867 128.882 151.503 128.364 151.885 127.846C152.012 127.587 152.012 127.199 152.266 126.94C152.775 126.292 153.411 125.515 153.92 124.868C154.556 124.221 155.192 123.703 155.574 123.055C155.956 122.408 155.956 121.631 156.083 120.854C156.21 120.336 156.083 119.688 156.21 119.041C156.337 118.393 156.465 117.746 156.846 117.228C157.101 116.451 157.609 115.803 157.991 115.156C158.373 114.768 158.882 114.379 159.009 113.861C159.263 113.343 159.009 112.696 159.136 112.178C159.263 111.012 159.645 109.976 160.027 109.07C160.281 108.163 160.79 107.386 161.044 106.609C161.171 106.35 161.426 106.091 161.426 105.832C161.426 105.315 161.171 104.926 161.171 104.408C161.171 104.02 161.553 103.631 161.553 103.243C161.426 102.595 160.917 102.077 160.917 101.43C160.917 100.912 161.171 100.264 161.426 99.7463C161.553 98.8399 162.062 98.0629 162.062 97.2859C162.062 96.509 161.299 95.991 161.299 95.214C161.299 94.5666 161.808 93.9191 162.062 93.2716C162.189 92.8832 162.189 92.4947 162.316 92.2357C162.571 91.9767 163.08 91.8472 163.08 91.5882C163.08 91.1998 162.571 90.9408 162.571 90.5523C162.571 90.2933 162.953 89.9048 163.207 90.0343C163.716 90.2933 163.461 91.1998 163.97 91.4587C164.352 91.7177 164.988 91.3292 165.37 91.0703C165.751 90.8113 166.006 90.2933 166.387 90.0343C167.023 89.3868 167.787 89.1279 168.296 88.4804C168.804 87.9624 169.059 87.1855 169.44 86.538V86.4085C169.44 86.02 169.568 85.5021 169.695 85.1136C169.822 84.7251 170.204 84.3366 170.331 83.8186C170.458 83.5597 170.204 83.3007 170.331 83.1712C170.585 83.0417 170.84 83.5597 170.967 83.4302C171.349 83.1712 171.349 82.5237 171.603 82.1352C171.985 81.7467 172.494 81.3583 173.002 80.9698C173.766 80.1928 174.529 79.4159 175.42 78.7684C175.801 78.5094 176.183 78.2504 176.565 77.862C176.819 77.603 176.692 77.085 176.946 76.826C177.201 76.6965 177.582 76.826 177.837 76.6965C178.091 76.4375 178.346 76.1785 178.473 75.7901C178.6 75.6606 178.346 75.2721 178.473 75.0131C178.982 74.3656 179.745 73.9772 180.254 73.3297C180.763 72.8117 181.271 72.1643 181.526 71.5168C182.035 70.7398 182.162 69.9629 182.544 69.0564C182.925 68.15 183.434 67.2435 183.689 66.2076C183.816 65.1716 183.816 64.1357 183.689 63.2292C183.689 61.9343 183.689 60.7688 183.561 59.4739C183.434 58.8265 183.307 58.0495 183.18 57.2725C183.052 56.7546 183.052 56.2366 182.925 55.5891C182.544 54.5532 182.162 53.5172 181.653 52.6108C181.399 52.2223 181.017 51.9633 180.635 51.8338C179.618 51.4453 178.6 51.3158 177.582 51.1863C176.819 51.0569 176.056 51.4453 175.292 51.3158C174.402 51.0569 173.639 50.4094 172.875 50.0209C171.985 49.3734 171.349 48.726 170.585 48.208C169.695 47.5605 168.932 46.9131 168.168 46.1361C167.405 45.4886 166.769 44.7117 166.006 43.9347C165.37 43.4168 164.734 42.7693 163.97 42.3808C163.207 41.8628 162.189 41.8628 161.299 41.4744C160.79 41.0859 160.281 40.5679 159.645 40.3089C158.882 40.0499 158.118 40.0499 157.355 39.9204C156.592 39.9204 155.701 40.0499 154.938 40.1794C154.429 40.3089 153.92 40.8269 153.284 40.8269C152.648 40.6974 152.139 40.0499 151.503 39.7909C151.122 39.6615 150.613 39.4025 150.104 39.4025C149.595 39.273 148.959 39.6615 148.45 39.532C148.196 39.4025 148.068 38.8845 147.814 38.8845C147.305 38.6255 146.669 38.8845 146.16 38.755C145.906 38.6255 145.906 38.1075 145.651 37.978C145.015 37.7191 144.252 37.7191 143.616 37.4601C143.489 37.4601 143.361 37.0716 143.107 37.0716C142.853 37.2011 142.98 37.8485 142.725 37.978C142.344 38.1075 141.962 37.8485 141.708 37.5896C141.453 37.4601 141.58 36.8126 141.326 36.9421C140.944 37.2011 141.072 37.8485 140.817 38.237C140.563 38.3665 140.308 38.3665 140.054 38.237C139.799 38.237 139.545 37.978 139.418 37.8485C139.163 37.7191 138.909 37.5896 138.654 37.7191C138.4 38.1075 138.4 38.755 138.273 39.273C138.018 39.6615 137.891 40.0499 137.51 40.4384C137.255 40.6974 136.746 40.8269 136.492 41.2154C136.237 41.7333 136.365 43.4168 136.11 42.8988C135.856 42.2513 136.11 41.4744 136.365 40.8269C136.365 40.5679 136.619 40.1794 136.746 39.7909C136.873 39.532 136.746 39.273 136.873 39.014C137.001 38.6255 137.255 38.237 137.51 37.8485C137.637 37.5896 137.891 37.3306 138.146 37.0716C138.273 36.9421 138.654 36.8126 138.654 36.6831C138.527 36.4241 138.273 36.1651 138.018 36.1651C137.764 36.2946 137.51 36.9421 137.255 36.6831C137.001 36.5536 137.382 36.1651 137.51 35.9061C137.637 35.6472 138.018 35.5177 138.018 35.2587C138.018 34.8702 137.764 34.6112 137.51 34.3522C137.382 34.2227 137.001 34.3522 136.873 34.2227C136.619 33.8343 136.492 33.3163 136.237 33.0573C136.11 32.9278 135.856 33.0573 135.729 32.9278C135.474 32.9278 135.347 32.5393 135.092 32.6688C134.711 32.6688 134.456 32.9278 134.329 33.3163C134.202 33.7048 134.838 34.3522 134.456 34.4817C133.947 34.6112 133.693 33.8343 133.566 33.4458C133.439 33.0573 134.075 32.7983 134.075 32.4098C133.947 32.1508 133.693 32.0214 133.311 32.0214C133.184 31.8919 133.184 32.2803 133.057 32.2803C132.803 32.1508 133.057 31.6329 132.803 31.6329C132.421 31.5034 132.039 31.8919 131.658 31.8919C131.276 31.8919 130.894 31.3739 130.513 31.3739C130.385 31.3739 130.258 31.8919 130.131 31.7624C129.877 31.5034 130.131 30.8559 129.877 30.7264C129.495 30.5969 129.113 31.3739 128.732 31.2444C128.35 31.1149 128.35 30.2084 127.841 29.9495C127.205 29.561 126.569 29.561 125.806 29.4315C125.17 29.1725 124.534 28.784 123.897 28.6545C123.643 28.6545 124.279 29.302 124.025 29.1725C123.516 29.1725 123.007 28.525 122.498 28.3955C122.116 28.3955 121.989 28.9135 121.862 28.9135C121.48 29.1725 121.099 29.043 120.844 29.302C120.463 29.4315 120.335 29.82 120.081 30.079C119.699 30.4674 119.318 30.8559 118.936 31.2444C118.682 31.5034 118.173 31.7624 118.173 32.0214C118.173 32.6688 119.318 33.0573 118.936 33.4458C118.682 33.8343 118.046 32.9278 117.664 32.9278C117.155 33.0573 116.901 33.7048 116.519 33.9637C116.265 34.0932 116.137 33.9637 116.01 33.9637C115.501 33.9637 114.992 33.8343 114.484 34.0932C113.975 34.2227 113.593 34.8702 113.084 35.1292C112.703 35.2587 112.321 35.1292 111.939 35.1292C111.43 35.1292 110.922 34.7407 110.413 34.8702C110.031 35.1292 110.158 36.1651 109.649 36.0356C108.886 36.0356 108.759 34.7407 108.123 34.6112C107.741 34.4817 107.741 35.5177 107.36 35.6472C106.978 35.7767 106.723 35.2587 106.723 34.8702C106.851 34.4817 107.614 34.4817 107.868 33.9637C107.996 33.5753 107.996 32.9278 107.868 32.5393C107.741 32.1508 107.614 31.6329 107.232 31.6329C106.215 31.6329 105.324 32.2803 104.306 32.6688C103.416 32.9278 102.398 33.4458 101.508 33.5753C100.872 33.7048 100.236 33.9638 99.7266 33.5753C99.4722 33.4458 100.108 32.9278 100.363 32.7983C100.999 32.5393 101.889 32.9278 102.525 32.5393C103.034 32.0214 103.034 31.2444 103.289 30.4674C103.289 30.3379 103.289 30.079 103.416 29.9495C103.925 29.043 104.434 28.0071 105.07 27.2301C105.833 26.1942 106.596 25.4172 107.487 24.5107C107.868 24.1223 108.504 23.8633 108.886 23.3453C109.649 22.6978 110.158 21.9209 110.667 21.1439C111.176 20.4965 111.812 19.7195 111.939 18.813C111.939 18.2951 111.558 17.7771 111.176 17.5181C110.413 17.1296 109.522 17.6476 108.886 17.2591C108.377 17.0001 108.25 16.3527 108.123 15.8347C107.996 15.5757 108.25 15.3167 108.25 14.9282C108.123 14.4103 107.868 13.8923 107.614 13.3743C107.232 12.5974 106.851 11.9499 106.596 11.0435C106.469 10.2665 106.469 9.48953 106.342 8.71257C106.215 8.1946 106.342 7.54713 106.087 7.02916C105.706 6.2522 105.197 5.08676 104.306 4.95727C103.798 4.95727 104.942 6.2522 104.688 6.77017C104.434 7.15865 104.052 5.86372 103.67 5.99321C102.78 6.64068 102.271 7.80612 101.635 8.71257C100.999 9.87801 100.363 11.0435 99.7266 12.2089C99.4722 12.8564 99.2178 13.3743 98.9634 13.8923C98.7089 14.4103 98.7089 15.0577 98.3273 15.3167C97.8184 15.7052 97.0551 15.9642 96.4191 15.8347C95.783 15.7052 95.6558 14.9282 95.1469 14.7988C94.8925 14.6693 94.6381 15.1872 94.3836 15.1872C94.1292 15.1872 93.8748 14.6693 93.6203 14.6693C92.857 14.7988 92.4754 15.7052 91.8393 15.7052C91.2032 15.8347 90.8216 15.1872 90.1855 14.9282C90.0583 14.9282 89.8039 15.3167 89.6767 15.1872C89.0406 14.7988 88.659 13.6333 87.8957 13.6333C86.8779 13.5038 85.8602 14.6693 84.8425 14.7988C84.3336 14.7988 83.952 13.8923 83.5704 14.0218C82.9343 14.1513 82.4254 14.6693 82.2982 15.3167C82.2982 15.9642 83.1887 16.4822 83.1887 17.1296C83.1887 17.3886 82.6798 17.6476 82.4254 17.5181C81.7893 17.2591 81.4077 16.3527 80.7716 16.2232C80.5172 16.0937 81.026 16.8706 80.7716 17.1296C80.5172 17.3886 79.8811 17.6476 79.3723 17.6476C78.9906 17.6476 78.609 17.1296 78.1001 17.1296C77.464 17.0001 76.5735 16.8706 75.9374 17.2591C75.683 17.3886 76.3191 18.0361 75.9374 18.1656C75.3014 18.5541 74.2837 18.1656 73.5204 18.4246C73.2659 18.4246 73.7748 18.9425 73.5204 19.072C73.1387 19.2015 72.7571 18.6835 72.5026 18.813C71.7394 19.2015 71.6121 20.2375 70.8488 20.4965C70.34 20.7554 69.5767 20.367 69.0678 20.108C68.3046 19.7195 67.5413 19.2015 67.0324 18.5541C66.6508 18.1656 66.5235 17.6476 66.3963 17.1296C66.3963 16.6117 66.9052 16.0937 66.778 15.5757C66.6508 15.1872 65.8875 15.0577 65.7603 14.6693C65.5058 14.0218 65.3786 13.1153 65.3786 12.4679C65.5058 12.0794 66.0147 11.9499 66.1419 11.6909C66.3963 11.3024 66.0147 10.914 66.2691 10.5255C66.6508 10.0075 67.5413 10.0075 67.6685 9.48953C67.9229 8.71257 67.4141 8.06511 67.2868 7.28815C67.1596 6.77017 66.9052 6.2522 66.778 5.86372C66.5235 5.60473 66.3963 5.21626 66.1419 5.08676C65.8875 4.95727 65.3786 5.21626 65.1242 4.95727C64.6153 4.4393 64.3609 3.79183 64.3609 3.14436C64.2337 2.62639 64.8698 2.23791 64.7425 1.71994C64.6153 1.46095 64.1065 1.20197 63.7248 1.20197C63.3432 1.33146 63.216 1.84943 62.8343 2.10842C62.5799 2.23791 62.3254 2.23791 62.071 2.10842C61.6894 1.97892 61.4349 1.20197 61.3077 1.46095C61.0533 1.84943 61.6894 2.23791 61.6894 2.62639C61.8166 3.01487 61.8166 3.40335 61.5622 3.66234C61.1805 4.18031 60.6717 4.56879 60.0356 4.82778C59.3995 5.21626 58.509 5.21626 57.8729 5.60473C57.4913 5.86372 57.4913 6.51119 57.1096 6.77017C56.6008 7.02916 55.8375 7.02916 55.3286 7.15865C54.5653 7.28815 53.9293 6.89967 53.2932 7.15865C52.6571 7.41764 52.1483 7.80612 51.7666 8.32409C51.6394 8.71257 52.021 9.10105 51.8938 9.48953C51.7666 9.74852 51.385 9.61902 51.2577 9.48953C50.8761 9.23055 50.7489 8.58308 50.3672 8.45359C49.9856 8.1946 49.4767 8.45359 49.0951 8.32409C48.3318 8.1946 47.5685 7.93561 46.9324 7.54713C46.4236 7.28815 46.2964 6.2522 45.6603 6.2522C45.0242 6.2522 44.3881 7.02916 44.0065 7.67663C43.7521 8.06511 43.8793 8.84207 44.2609 9.10105C44.7698 9.48953 45.6603 8.84207 46.1691 9.36004C46.5508 9.61903 46.4236 10.2665 46.2964 10.7845C46.1691 11.1729 45.9147 11.4319 45.6603 11.8204C45.5331 12.2089 45.2786 12.5974 45.2786 13.1153C45.2786 13.7628 45.4059 14.2808 45.5331 14.9282C45.6603 15.3167 45.7875 15.5757 46.0419 15.8347C46.1691 16.0937 46.5508 16.0937 46.8052 16.0937C47.0597 16.2232 47.4413 16.6117 47.8229 16.4822C48.0774 16.4822 48.3318 15.9642 48.5862 15.9642C49.0951 16.0937 49.7312 16.7412 49.3495 17.0001C48.7134 17.6476 47.5685 17.0001 46.9324 17.6476C46.0419 18.2951 46.2964 19.9785 45.4059 20.6259C45.0242 21.0144 45.0242 19.59 44.5154 19.59C44.0065 19.59 43.8793 20.4965 43.4976 20.8849C42.6071 21.6619 41.7166 22.1799 40.9533 22.8273C40.5717 23.2158 40.4445 24.2518 39.9356 24.1223C39.2995 24.1223 39.6812 22.9568 39.1723 22.5683C38.7907 22.3094 38.2818 22.1799 37.9002 22.5683C37.5185 22.9568 37.9002 24.2518 37.2641 24.2518C36.3736 24.3813 35.8647 23.3453 35.1014 22.8273C34.4654 22.4389 33.7021 22.1799 33.3204 21.5324C33.066 21.2734 33.4476 20.7554 33.3204 20.367C32.8116 19.331 32.4299 17.9066 31.4122 17.5181C30.6489 17.2591 30.5217 19.072 29.7584 19.2015C29.2496 19.331 29.1223 18.2951 28.6135 18.0361C28.2318 17.9066 27.723 17.9066 27.5958 18.2951C27.4685 18.6835 28.4863 19.4605 27.9774 19.59C26.3236 20.2375 24.5426 19.849 22.7616 19.849C22.1255 19.849 21.1078 19.331 20.8534 19.9785C20.4717 21.0144 20.7261 22.3094 21.235 23.4748C21.3622 23.8633 22.1255 23.4748 22.5072 23.4748C22.8888 23.3453 23.2704 23.0863 23.5249 23.3453C23.9065 23.6043 23.7793 24.2518 23.7793 24.6402C23.6521 25.0287 23.3977 25.5467 23.016 25.5467C22.6344 25.5467 22.3799 24.6402 21.8711 24.6402C21.235 24.7697 20.3445 25.1582 20.0901 25.8057C19.7084 26.8416 19.9629 28.0071 20.0901 29.043C20.2173 29.4315 20.4717 29.6905 20.8534 30.079C21.1078 30.2084 21.6167 30.2084 21.7439 30.5969C22.1255 30.9854 21.9983 31.5034 22.2527 32.0214C22.3799 32.4098 22.7616 32.6688 22.7616 33.0573C22.7616 33.7048 22.3799 34.2227 22.3799 34.8702C22.3799 35.3882 22.6344 36.0356 22.5072 36.5536C22.1255 39.4025 21.6167 42.3808 20.9806 45.2297C20.7261 46.3951 20.7261 47.8195 19.9629 48.5965C19.5812 48.985 18.9451 47.5605 18.4363 47.69C17.673 47.8195 17.4186 48.8555 16.6553 48.985C16.2736 49.1145 15.892 48.3375 15.5103 48.467C15.1287 48.467 15.0015 48.985 14.6198 49.1145C14.2382 49.3734 13.7293 48.985 13.3477 49.1145C12.5844 49.5029 12.0755 50.1504 11.4395 50.6684C10.8034 51.1863 10.0401 51.4453 9.53123 52.0928C8.89515 52.7403 8.51351 53.6467 8.25908 54.4237C8.00465 55.0711 7.87743 55.7186 7.75022 56.3661C7.75022 56.884 7.87743 57.402 7.75022 57.92C7.62301 58.5675 7.62301 59.3444 7.11415 59.8624C6.85972 60.3804 5.96921 60.1214 5.71478 60.6394C5.33314 61.2868 5.46035 62.0638 5.46035 62.7112C5.46035 63.0997 5.71478 63.6177 5.46035 63.8767C5.20592 64.2652 4.56985 64.0062 4.44263 64.3947C4.31542 64.6536 4.56985 65.0421 4.69706 65.3011C4.95149 65.5601 5.33314 65.5601 5.58757 65.8191C5.842 66.0781 5.71478 66.596 5.842 66.855C5.96921 67.2435 6.09643 67.632 6.35086 67.891ZM104.306 29.9495C104.688 29.302 105.07 28.525 105.579 27.8776C105.96 27.4891 106.596 26.3237 106.978 26.7121C107.487 27.3596 106.851 28.3955 106.596 29.043C106.342 29.82 105.833 30.5969 105.197 31.1149C104.688 31.6329 103.798 32.9278 103.289 32.2803C102.653 31.6329 103.925 30.7264 104.306 29.9495ZM108.504 28.1366C108.377 28.6545 108.886 29.1725 108.886 29.6905C108.759 30.2084 108.123 30.4674 108.123 30.8559C107.996 31.5034 108.123 32.2803 108.504 32.7983C108.759 33.0573 109.395 32.7983 109.649 33.0573C109.904 33.3163 109.395 33.8343 109.649 33.9637C110.285 34.2227 110.922 33.9637 111.43 34.0932C111.812 34.0932 112.067 34.4817 112.448 34.3522C112.703 34.3522 112.575 33.8343 112.83 33.5753C113.339 33.3163 113.848 33.4458 114.229 33.1868C114.738 33.0573 114.992 32.5393 115.501 32.5393C115.756 32.5393 115.883 33.0573 116.265 33.0573C116.519 33.0573 116.901 32.7983 117.028 32.4098C117.028 32.0214 116.392 31.3739 116.646 30.9854C117.028 30.3379 118.046 30.3379 118.554 29.6905C119.063 29.043 120.208 28.1366 119.699 27.3596C119.063 26.4531 117.41 26.1942 116.392 26.7121C115.629 27.2301 116.392 28.784 115.756 29.561C115.501 29.9495 115.247 28.6545 115.247 28.1366C115.247 27.8776 115.883 28.0071 115.883 27.7481C115.883 27.3596 115.629 26.9711 115.374 26.8416C114.484 26.4531 113.593 26.5826 112.703 26.5826C111.939 26.4531 111.049 26.4531 110.285 26.5826C109.904 26.7121 109.649 27.1006 109.268 27.3596C109.013 27.6186 108.504 27.7481 108.504 28.1366ZM110.922 25.8057C111.685 25.6762 112.448 25.9352 112.957 25.5467C113.339 25.2877 113.72 24.5107 113.466 24.2518C112.83 23.7338 111.812 24.3813 111.176 23.9928C110.922 23.7338 111.939 22.8273 111.558 22.8273C110.794 22.8273 110.158 23.3453 109.649 23.8633C109.268 24.1223 108.886 24.5107 108.886 25.0287C108.759 25.4172 108.886 25.9352 109.268 26.0647C109.522 26.1942 109.522 25.5467 109.649 25.2877C109.904 25.0287 109.904 24.6402 110.285 24.5107C110.413 24.3813 110.794 24.6402 110.667 24.8992C110.667 25.2877 109.904 25.5467 110.031 25.8057C110.031 26.1942 110.667 25.8057 110.922 25.8057ZM107.487 25.6762C106.978 25.8057 107.232 26.9711 107.487 27.3596C107.741 27.7481 108.504 27.4891 108.504 27.2301C108.504 26.5826 108.123 25.5467 107.487 25.6762Z" stroke="black" stroke-width="0.487633"/>
</g>
<defs>
<filter id="filter0_d" x="0.164062" y="0.95816" width="187.864" height="190.393" filterUnits="userSpaceOnUse" color-interpolation-filters="sRGB">
<feFlood flood-opacity="0" result="BackgroundImageFix"/>
<feColorMatrix in="SourceAlpha" type="matrix" values="0 0 0 0 0 0 0 0 0 0 0 0 0 0 0 0 0 0 127 0"/>
<feOffset dy="4"/>
<feGaussianBlur stdDeviation="2"/>
<feColorMatrix type="matrix" values="0 0 0 0 0 0 0 0 0 0 0 0 0 0 0 0 0 0 0.25 0"/>
<feBlend mode="normal" in2="BackgroundImageFix" result="effect1_dropShadow"/>
<feBlend mode="normal" in="SourceGraphic" in2="effect1_dropShadow" result="shape"/>
</filter>
</defs>
</svg>
