<svg width="360" height="316" viewBox="0 0 360 316" fill="none" xmlns="http://www.w3.org/2000/svg">
<path d="M75 86.7036L112.5 106.204V182.204L75 202.704V86.7036Z" fill="#39393A"/>
<path d="M179.246 68.2036L248.5 106.74L179.246 143.75L111 106.74L179.246 68.2036Z" fill="#39393A"/>
<path d="M247 106.704L247 182.204L179.5 219.204L180 143.704L247 106.704Z" fill="#A65E09"/>
<path d="M180 143.704L180 219.704L112.5 182.704L112.5 107.204L180 143.704Z" fill="#ED9728"/>
<path d="M75 86.7036L179.5 30.7036V69.2036L112.5 106.204L75 86.7036Z" fill="#ED9728"/>
<path d="M179.5 30.7036L283 87.2034L249.178 107.85L179.5 69.2034L179.5 30.7036Z" fill="#A65E09"/>
<path d="M283.5 86.7036L283.5 203.704L247 181.704L247 106.204L283.5 86.7036Z" fill="#ED9728"/>
<path d="M126.5 142.204L136 146.704V157.204L126.5 152.204V142.204Z" fill="white"/>
<path d="M145.5 151.704L155 156.204V166.704L145.5 161.704V151.704Z" fill="white"/>
<path d="M145.5 170.704L155 175.204V185.704L145.5 180.704V170.704Z" fill="white"/>
<path d="M126.5 159.204L136 163.704V174.204L126.5 169.204V159.204Z" fill="white"/>

<path d="M152.492 260.896C153.932 261.352 155.06 262.12 155.876 263.2C156.692 264.256 157.1 265.564 157.1 267.124C157.1 269.332 156.236 271.036 154.508 272.236C152.804 273.412 150.308 274 147.02 274H133.988V248.8H146.3C149.372 248.8 151.724 249.388 153.356 250.564C155.012 251.74 155.84 253.336 155.84 255.352C155.84 256.576 155.54 257.668 154.94 258.628C154.364 259.588 153.548 260.344 152.492 260.896ZM139.784 253.192V259.132H145.58C147.02 259.132 148.112 258.88 148.856 258.376C149.6 257.872 149.972 257.128 149.972 256.144C149.972 255.16 149.6 254.428 148.856 253.948C148.112 253.444 147.02 253.192 145.58 253.192H139.784ZM146.588 269.608C148.124 269.608 149.276 269.356 150.044 268.852C150.836 268.348 151.232 267.568 151.232 266.512C151.232 264.424 149.684 263.38 146.588 263.38H139.784V269.608H146.588ZM183.771 274.432C181.203 274.432 178.875 273.88 176.787 272.776C174.723 271.648 173.091 270.1 171.891 268.132C170.715 266.14 170.127 263.896 170.127 261.4C170.127 258.904 170.715 256.672 171.891 254.704C173.091 252.712 174.723 251.164 176.787 250.06C178.875 248.932 181.215 248.368 183.807 248.368C185.991 248.368 187.959 248.752 189.711 249.52C191.487 250.288 192.975 251.392 194.175 252.832L190.431 256.288C188.727 254.32 186.615 253.336 184.095 253.336C182.535 253.336 181.143 253.684 179.919 254.38C178.695 255.052 177.735 256 177.039 257.224C176.367 258.448 176.031 259.84 176.031 261.4C176.031 262.96 176.367 264.352 177.039 265.576C177.735 266.8 178.695 267.76 179.919 268.456C181.143 269.128 182.535 269.464 184.095 269.464C186.615 269.464 188.727 268.468 190.431 266.476L194.175 269.932C192.975 271.396 191.487 272.512 189.711 273.28C187.935 274.048 185.955 274.432 183.771 274.432ZM214.14 253.48V260.14H225.804V264.82H214.14V274H208.308V248.8H227.352V253.48H214.14Z" fill="#39393A"/>
</svg>
